<?xml version="1.0" encoding="UTF-8" standalone="no"?>
<!DOCTYPE svg PUBLIC "-//W3C//DTD SVG 1.1//EN"
 "http://www.w3.org/Graphics/SVG/1.1/DTD/svg11.dtd">
<!-- Generated by graphviz version 2.26.3 (20100126.1600)
 -->
<!-- Title: controllers_diagram Pages: 1 -->
<svg width="2048pt" height="526pt"
 viewBox="0.00 0.00 2048.00 526.00" xmlns="http://www.w3.org/2000/svg" xmlns:xlink="http://www.w3.org/1999/xlink">
<g id="graph1" class="graph" transform="scale(1 1) rotate(0) translate(4 522)">
<title>controllers_diagram</title>
<polygon fill="white" stroke="white" points="-4,5 -4,-522 2045,-522 2045,5 -4,5"/>
<!-- PlayersController -->
<g id="node1" class="node"><title>PlayersController</title>
<polyline fill="none" stroke="black" points="12,-209 124,-209 "/>
<path fill="none" stroke="black" d="M124,-209C130,-209 136,-215 136,-221"/>
<polyline fill="none" stroke="black" points="136,-221 136,-297 "/>
<path fill="none" stroke="black" d="M136,-297C136,-303 130,-309 124,-309"/>
<polyline fill="none" stroke="black" points="124,-309 12,-309 "/>
<path fill="none" stroke="black" d="M12,-309C6,-309 0,-303 0,-297"/>
<polyline fill="none" stroke="black" points="0,-297 0,-221 "/>
<path fill="none" stroke="black" d="M0,-221C0,-215 6,-209 12,-209"/>
<text text-anchor="middle" x="68" y="-292.4" font-family="Times Roman,serif" font-size="14.00">PlayersController</text>
<polyline fill="none" stroke="black" points="0,-283 136,-283 "/>
<polyline fill="none" stroke="black" points="0,-259 136,-259 "/>
<polyline fill="none" stroke="black" points="0,-235 136,-235 "/>
<text text-anchor="start" x="8" y="-218.4" font-family="Times Roman,serif" font-size="14.00">_layout</text>
</g>
<!-- RoundsController -->
<g id="node2" class="node"><title>RoundsController</title>
<polyline fill="none" stroke="black" points="166,-190 278,-190 "/>
<path fill="none" stroke="black" d="M278,-190C284,-190 290,-196 290,-202"/>
<polyline fill="none" stroke="black" points="290,-202 290,-316 "/>
<path fill="none" stroke="black" d="M290,-316C290,-322 284,-328 278,-328"/>
<polyline fill="none" stroke="black" points="278,-328 166,-328 "/>
<path fill="none" stroke="black" d="M166,-328C160,-328 154,-322 154,-316"/>
<polyline fill="none" stroke="black" points="154,-316 154,-202 "/>
<path fill="none" stroke="black" d="M154,-202C154,-196 160,-190 166,-190"/>
<text text-anchor="middle" x="222" y="-311.4" font-family="Times Roman,serif" font-size="14.00">RoundsController</text>
<polyline fill="none" stroke="black" points="154,-302 290,-302 "/>
<text text-anchor="start" x="162" y="-285.4" font-family="Times Roman,serif" font-size="14.00">next</text>
<text text-anchor="start" x="162" y="-267.4" font-family="Times Roman,serif" font-size="14.00">previous</text>
<text text-anchor="start" x="162" y="-249.4" font-family="Times Roman,serif" font-size="14.00">show</text>
<polyline fill="none" stroke="black" points="154,-240 290,-240 "/>
<polyline fill="none" stroke="black" points="154,-216 290,-216 "/>
<text text-anchor="start" x="162" y="-199.4" font-family="Times Roman,serif" font-size="14.00">_layout</text>
</g>
<!-- UserSessionsController -->
<g id="node3" class="node"><title>UserSessionsController</title>
<polyline fill="none" stroke="black" points="320,-181 472,-181 "/>
<path fill="none" stroke="black" d="M472,-181C478,-181 484,-187 484,-193"/>
<polyline fill="none" stroke="black" points="484,-193 484,-325 "/>
<path fill="none" stroke="black" d="M484,-325C484,-331 478,-337 472,-337"/>
<polyline fill="none" stroke="black" points="472,-337 320,-337 "/>
<path fill="none" stroke="black" d="M320,-337C314,-337 308,-331 308,-325"/>
<polyline fill="none" stroke="black" points="308,-325 308,-193 "/>
<path fill="none" stroke="black" d="M308,-193C308,-187 314,-181 320,-181"/>
<text text-anchor="middle" x="396" y="-320.4" font-family="Times Roman,serif" font-size="14.00">UserSessionsController</text>
<polyline fill="none" stroke="black" points="308,-311 484,-311 "/>
<text text-anchor="start" x="316" y="-294.4" font-family="Times Roman,serif" font-size="14.00">create</text>
<text text-anchor="start" x="316" y="-276.4" font-family="Times Roman,serif" font-size="14.00">destroy</text>
<text text-anchor="start" x="316" y="-258.4" font-family="Times Roman,serif" font-size="14.00">index</text>
<text text-anchor="start" x="316" y="-240.4" font-family="Times Roman,serif" font-size="14.00">new</text>
<polyline fill="none" stroke="black" points="308,-231 484,-231 "/>
<polyline fill="none" stroke="black" points="308,-207 484,-207 "/>
<text text-anchor="start" x="316" y="-190.4" font-family="Times Roman,serif" font-size="14.00">_layout</text>
</g>
<!-- ClubsController -->
<g id="node4" class="node"><title>ClubsController</title>
<polyline fill="none" stroke="black" points="513.5,-1 736.5,-1 "/>
<path fill="none" stroke="black" d="M736.5,-1C742.5,-1 748.5,-7 748.5,-13"/>
<polyline fill="none" stroke="black" points="748.5,-13 748.5,-505 "/>
<path fill="none" stroke="black" d="M748.5,-505C748.5,-511 742.5,-517 736.5,-517"/>
<polyline fill="none" stroke="black" points="736.5,-517 513.5,-517 "/>
<path fill="none" stroke="black" d="M513.5,-517C507.5,-517 501.5,-511 501.5,-505"/>
<polyline fill="none" stroke="black" points="501.5,-505 501.5,-13 "/>
<path fill="none" stroke="black" d="M501.5,-13C501.5,-7 507.5,-1 513.5,-1"/>
<text text-anchor="middle" x="625" y="-500.4" font-family="Times Roman,serif" font-size="14.00">ClubsController</text>
<polyline fill="none" stroke="black" points="501.5,-491 748.5,-491 "/>
<text text-anchor="start" x="509.5" y="-474.4" font-family="Times Roman,serif" font-size="14.00">_one_time_conditions_valid_290?</text>
<text text-anchor="start" x="509.5" y="-456.4" font-family="Times Roman,serif" font-size="14.00">_one_time_conditions_valid_294?</text>
<text text-anchor="start" x="509.5" y="-438.4" font-family="Times Roman,serif" font-size="14.00">_one_time_conditions_valid_296?</text>
<text text-anchor="start" x="509.5" y="-420.4" font-family="Times Roman,serif" font-size="14.00">_one_time_conditions_valid_300?</text>
<text text-anchor="start" x="509.5" y="-402.4" font-family="Times Roman,serif" font-size="14.00">_one_time_conditions_valid_304?</text>
<text text-anchor="start" x="509.5" y="-384.4" font-family="Times Roman,serif" font-size="14.00">_one_time_conditions_valid_308?</text>
<text text-anchor="start" x="509.5" y="-366.4" font-family="Times Roman,serif" font-size="14.00">accept_offer</text>
<text text-anchor="start" x="509.5" y="-348.4" font-family="Times Roman,serif" font-size="14.00">cancel_offer</text>
<text text-anchor="start" x="509.5" y="-330.4" font-family="Times Roman,serif" font-size="14.00">finances</text>
<text text-anchor="start" x="509.5" y="-312.4" font-family="Times Roman,serif" font-size="14.00">make_offer</text>
<text text-anchor="start" x="509.5" y="-294.4" font-family="Times Roman,serif" font-size="14.00">received_offers</text>
<text text-anchor="start" x="509.5" y="-276.4" font-family="Times Roman,serif" font-size="14.00">reject_offer</text>
<text text-anchor="start" x="509.5" y="-258.4" font-family="Times Roman,serif" font-size="14.00">replace</text>
<text text-anchor="start" x="509.5" y="-240.4" font-family="Times Roman,serif" font-size="14.00">sent_offers</text>
<text text-anchor="start" x="509.5" y="-222.4" font-family="Times Roman,serif" font-size="14.00">tactic</text>
<text text-anchor="start" x="509.5" y="-204.4" font-family="Times Roman,serif" font-size="14.00">team</text>
<text text-anchor="start" x="509.5" y="-186.4" font-family="Times Roman,serif" font-size="14.00">ticket_price</text>
<text text-anchor="start" x="509.5" y="-168.4" font-family="Times Roman,serif" font-size="14.00">train_ability</text>
<text text-anchor="start" x="509.5" y="-150.4" font-family="Times Roman,serif" font-size="14.00">trainings</text>
<polyline fill="none" stroke="black" points="501.5,-141 748.5,-141 "/>
<polyline fill="none" stroke="black" points="501.5,-117 748.5,-117 "/>
<text text-anchor="start" x="509.5" y="-100.4" font-family="Times Roman,serif" font-size="14.00">_layout</text>
<text text-anchor="start" x="509.5" y="-82.4" font-family="Times Roman,serif" font-size="14.00">require_club</text>
<text text-anchor="start" x="509.5" y="-64.4" font-family="Times Roman,serif" font-size="14.00">require_not_propietary</text>
<text text-anchor="start" x="509.5" y="-46.4" font-family="Times Roman,serif" font-size="14.00">require_open_teams</text>
<text text-anchor="start" x="509.5" y="-28.4" font-family="Times Roman,serif" font-size="14.00">require_propietary</text>
<text text-anchor="start" x="509.5" y="-10.4" font-family="Times Roman,serif" font-size="14.00">set_club_user</text>
</g>
<!-- HomeController -->
<g id="node5" class="node"><title>HomeController</title>
<polyline fill="none" stroke="black" points="777.5,-208 878.5,-208 "/>
<path fill="none" stroke="black" d="M878.5,-208C884.5,-208 890.5,-214 890.5,-220"/>
<polyline fill="none" stroke="black" points="890.5,-220 890.5,-298 "/>
<path fill="none" stroke="black" d="M890.5,-298C890.5,-304 884.5,-310 878.5,-310"/>
<polyline fill="none" stroke="black" points="878.5,-310 777.5,-310 "/>
<path fill="none" stroke="black" d="M777.5,-310C771.5,-310 765.5,-304 765.5,-298"/>
<polyline fill="none" stroke="black" points="765.5,-298 765.5,-220 "/>
<path fill="none" stroke="black" d="M765.5,-220C765.5,-214 771.5,-208 777.5,-208"/>
<text text-anchor="middle" x="828" y="-293.4" font-family="Times Roman,serif" font-size="14.00">HomeController</text>
<polyline fill="none" stroke="black" points="765.5,-284 890.5,-284 "/>
<text text-anchor="start" x="773.5" y="-267.4" font-family="Times Roman,serif" font-size="14.00">index</text>
<polyline fill="none" stroke="black" points="765.5,-258 890.5,-258 "/>
<polyline fill="none" stroke="black" points="765.5,-234 890.5,-234 "/>
<text text-anchor="start" x="773.5" y="-217.4" font-family="Times Roman,serif" font-size="14.00">_layout</text>
</g>
<!-- ApplicationController -->
<g id="node6" class="node"><title>ApplicationController</title>
<polyline fill="none" stroke="black" points="920,-118 1134,-118 "/>
<path fill="none" stroke="black" d="M1134,-118C1140,-118 1146,-124 1146,-130"/>
<polyline fill="none" stroke="black" points="1146,-130 1146,-388 "/>
<path fill="none" stroke="black" d="M1146,-388C1146,-394 1140,-400 1134,-400"/>
<polyline fill="none" stroke="black" points="1134,-400 920,-400 "/>
<path fill="none" stroke="black" d="M920,-400C914,-400 908,-394 908,-388"/>
<polyline fill="none" stroke="black" points="908,-388 908,-130 "/>
<path fill="none" stroke="black" d="M908,-130C908,-124 914,-118 920,-118"/>
<text text-anchor="middle" x="1027" y="-383.4" font-family="Times Roman,serif" font-size="14.00">ApplicationController</text>
<polyline fill="none" stroke="black" points="908,-374 1146,-374 "/>
<text text-anchor="start" x="916" y="-357.4" font-family="Times Roman,serif" font-size="14.00">_one_time_conditions_valid_74?</text>
<text text-anchor="start" x="916" y="-339.4" font-family="Times Roman,serif" font-size="14.00">_one_time_conditions_valid_76?</text>
<text text-anchor="start" x="916" y="-321.4" font-family="Times Roman,serif" font-size="14.00">default_url_options</text>
<polyline fill="none" stroke="black" points="908,-312 1146,-312 "/>
<polyline fill="none" stroke="black" points="908,-288 1146,-288 "/>
<text text-anchor="start" x="916" y="-271.4" font-family="Times Roman,serif" font-size="14.00">_layout</text>
<text text-anchor="start" x="916" y="-253.4" font-family="Times Roman,serif" font-size="14.00">current_season</text>
<text text-anchor="start" x="916" y="-235.4" font-family="Times Roman,serif" font-size="14.00">current_user</text>
<text text-anchor="start" x="916" y="-217.4" font-family="Times Roman,serif" font-size="14.00">current_user_session</text>
<text text-anchor="start" x="916" y="-199.4" font-family="Times Roman,serif" font-size="14.00">redirect_back_or_default</text>
<text text-anchor="start" x="916" y="-181.4" font-family="Times Roman,serif" font-size="14.00">require_admin</text>
<text text-anchor="start" x="916" y="-163.4" font-family="Times Roman,serif" font-size="14.00">require_user</text>
<text text-anchor="start" x="916" y="-145.4" font-family="Times Roman,serif" font-size="14.00">set_locale</text>
<text text-anchor="start" x="916" y="-127.4" font-family="Times Roman,serif" font-size="14.00">store_location</text>
</g>
<!-- LeaguesController -->
<g id="node7" class="node"><title>LeaguesController</title>
<polyline fill="none" stroke="black" points="1175.5,-64 1398.5,-64 "/>
<path fill="none" stroke="black" d="M1398.5,-64C1404.5,-64 1410.5,-70 1410.5,-76"/>
<polyline fill="none" stroke="black" points="1410.5,-76 1410.5,-442 "/>
<path fill="none" stroke="black" d="M1410.5,-442C1410.5,-448 1404.5,-454 1398.5,-454"/>
<polyline fill="none" stroke="black" points="1398.5,-454 1175.5,-454 "/>
<path fill="none" stroke="black" d="M1175.5,-454C1169.5,-454 1163.5,-448 1163.5,-442"/>
<polyline fill="none" stroke="black" points="1163.5,-442 1163.5,-76 "/>
<path fill="none" stroke="black" d="M1163.5,-76C1163.5,-70 1169.5,-64 1175.5,-64"/>
<text text-anchor="middle" x="1287" y="-437.4" font-family="Times Roman,serif" font-size="14.00">LeaguesController</text>
<polyline fill="none" stroke="black" points="1163.5,-428 1410.5,-428 "/>
<text text-anchor="start" x="1171.5" y="-411.4" font-family="Times Roman,serif" font-size="14.00">_one_time_conditions_valid_332?</text>
<text text-anchor="start" x="1171.5" y="-393.4" font-family="Times Roman,serif" font-size="14.00">_one_time_conditions_valid_336?</text>
<text text-anchor="start" x="1171.5" y="-375.4" font-family="Times Roman,serif" font-size="14.00">close_teams</text>
<text text-anchor="start" x="1171.5" y="-357.4" font-family="Times Roman,serif" font-size="14.00">create_calendar</text>
<text text-anchor="start" x="1171.5" y="-339.4" font-family="Times Roman,serif" font-size="14.00">index</text>
<text text-anchor="start" x="1171.5" y="-321.4" font-family="Times Roman,serif" font-size="14.00">message_create</text>
<text text-anchor="start" x="1171.5" y="-303.4" font-family="Times Roman,serif" font-size="14.00">message_destroy</text>
<text text-anchor="start" x="1171.5" y="-285.4" font-family="Times Roman,serif" font-size="14.00">message_edit</text>
<text text-anchor="start" x="1171.5" y="-267.4" font-family="Times Roman,serif" font-size="14.00">message_modify</text>
<text text-anchor="start" x="1171.5" y="-249.4" font-family="Times Roman,serif" font-size="14.00">message_new</text>
<text text-anchor="start" x="1171.5" y="-231.4" font-family="Times Roman,serif" font-size="14.00">messages</text>
<text text-anchor="start" x="1171.5" y="-213.4" font-family="Times Roman,serif" font-size="14.00">new_leagues</text>
<text text-anchor="start" x="1171.5" y="-195.4" font-family="Times Roman,serif" font-size="14.00">next_rounds</text>
<text text-anchor="start" x="1171.5" y="-177.4" font-family="Times Roman,serif" font-size="14.00">open_teams</text>
<text text-anchor="start" x="1171.5" y="-159.4" font-family="Times Roman,serif" font-size="14.00">promotion</text>
<text text-anchor="start" x="1171.5" y="-141.4" font-family="Times Roman,serif" font-size="14.00">simulate_rounds</text>
<text text-anchor="start" x="1171.5" y="-123.4" font-family="Times Roman,serif" font-size="14.00">start_rounds</text>
<polyline fill="none" stroke="black" points="1163.5,-114 1410.5,-114 "/>
<polyline fill="none" stroke="black" points="1163.5,-90 1410.5,-90 "/>
<text text-anchor="start" x="1171.5" y="-73.4" font-family="Times Roman,serif" font-size="14.00">_layout</text>
</g>
<!-- SeasonsController -->
<g id="node8" class="node"><title>SeasonsController</title>
<polyline fill="none" stroke="black" points="1440,-208 1558,-208 "/>
<path fill="none" stroke="black" d="M1558,-208C1564,-208 1570,-214 1570,-220"/>
<polyline fill="none" stroke="black" points="1570,-220 1570,-298 "/>
<path fill="none" stroke="black" d="M1570,-298C1570,-304 1564,-310 1558,-310"/>
<polyline fill="none" stroke="black" points="1558,-310 1440,-310 "/>
<path fill="none" stroke="black" d="M1440,-310C1434,-310 1428,-304 1428,-298"/>
<polyline fill="none" stroke="black" points="1428,-298 1428,-220 "/>
<path fill="none" stroke="black" d="M1428,-220C1428,-214 1434,-208 1440,-208"/>
<text text-anchor="middle" x="1499" y="-293.4" font-family="Times Roman,serif" font-size="14.00">SeasonsController</text>
<polyline fill="none" stroke="black" points="1428,-284 1570,-284 "/>
<text text-anchor="start" x="1436" y="-267.4" font-family="Times Roman,serif" font-size="14.00">show</text>
<polyline fill="none" stroke="black" points="1428,-258 1570,-258 "/>
<polyline fill="none" stroke="black" points="1428,-234 1570,-234 "/>
<text text-anchor="start" x="1436" y="-217.4" font-family="Times Roman,serif" font-size="14.00">_layout</text>
</g>
<!-- UsersController -->
<g id="node9" class="node"><title>UsersController</title>
<polyline fill="none" stroke="black" points="1599.5,-163 1822.5,-163 "/>
<path fill="none" stroke="black" d="M1822.5,-163C1828.5,-163 1834.5,-169 1834.5,-175"/>
<polyline fill="none" stroke="black" points="1834.5,-175 1834.5,-343 "/>
<path fill="none" stroke="black" d="M1834.5,-343C1834.5,-349 1828.5,-355 1822.5,-355"/>
<polyline fill="none" stroke="black" points="1822.5,-355 1599.5,-355 "/>
<path fill="none" stroke="black" d="M1599.5,-355C1593.5,-355 1587.5,-349 1587.5,-343"/>
<polyline fill="none" stroke="black" points="1587.5,-343 1587.5,-175 "/>
<path fill="none" stroke="black" d="M1587.5,-175C1587.5,-169 1593.5,-163 1599.5,-163"/>
<text text-anchor="middle" x="1711" y="-338.4" font-family="Times Roman,serif" font-size="14.00">UsersController</text>
<polyline fill="none" stroke="black" points="1587.5,-329 1834.5,-329 "/>
<text text-anchor="start" x="1595.5" y="-312.4" font-family="Times Roman,serif" font-size="14.00">_one_time_conditions_valid_436?</text>
<text text-anchor="start" x="1595.5" y="-294.4" font-family="Times Roman,serif" font-size="14.00">_one_time_conditions_valid_442?</text>
<text text-anchor="start" x="1595.5" y="-276.4" font-family="Times Roman,serif" font-size="14.00">all</text>
<text text-anchor="start" x="1595.5" y="-258.4" font-family="Times Roman,serif" font-size="14.00">create</text>
<text text-anchor="start" x="1595.5" y="-240.4" font-family="Times Roman,serif" font-size="14.00">new</text>
<text text-anchor="start" x="1595.5" y="-222.4" font-family="Times Roman,serif" font-size="14.00">no_club</text>
<polyline fill="none" stroke="black" points="1587.5,-213 1834.5,-213 "/>
<polyline fill="none" stroke="black" points="1587.5,-189 1834.5,-189 "/>
<text text-anchor="start" x="1595.5" y="-172.4" font-family="Times Roman,serif" font-size="14.00">_layout</text>
</g>
<!-- MatchGeneralsController -->
<g id="node10" class="node"><title>MatchGeneralsController</title>
<polyline fill="none" stroke="black" points="1863.5,-208 2028.5,-208 "/>
<path fill="none" stroke="black" d="M2028.5,-208C2034.5,-208 2040.5,-214 2040.5,-220"/>
<polyline fill="none" stroke="black" points="2040.5,-220 2040.5,-298 "/>
<path fill="none" stroke="black" d="M2040.5,-298C2040.5,-304 2034.5,-310 2028.5,-310"/>
<polyline fill="none" stroke="black" points="2028.5,-310 1863.5,-310 "/>
<path fill="none" stroke="black" d="M1863.5,-310C1857.5,-310 1851.5,-304 1851.5,-298"/>
<polyline fill="none" stroke="black" points="1851.5,-298 1851.5,-220 "/>
<path fill="none" stroke="black" d="M1851.5,-220C1851.5,-214 1857.5,-208 1863.5,-208"/>
<text text-anchor="middle" x="1946" y="-293.4" font-family="Times Roman,serif" font-size="14.00">MatchGeneralsController</text>
<polyline fill="none" stroke="black" points="1851.5,-284 2040.5,-284 "/>
<text text-anchor="start" x="1859.5" y="-267.4" font-family="Times Roman,serif" font-size="14.00">show</text>
<polyline fill="none" stroke="black" points="1851.5,-258 2040.5,-258 "/>
<polyline fill="none" stroke="black" points="1851.5,-234 2040.5,-234 "/>
<text text-anchor="start" x="1859.5" y="-217.4" font-family="Times Roman,serif" font-size="14.00">_layout</text>
</g>
</g>
</svg>
