<?xml version="1.0" encoding="UTF-8" standalone="no"?>
<!DOCTYPE svg PUBLIC "-//W3C//DTD SVG 1.1//EN"
 "http://www.w3.org/Graphics/SVG/1.1/DTD/svg11.dtd">
<!-- Generated by graphviz version 2.26.3 (20100126.1600)
 -->
<!-- Title: controllers_diagram Pages: 1 -->
<svg width="920pt" height="917pt"
 viewBox="0.00 0.00 920.00 917.00" xmlns="http://www.w3.org/2000/svg" xmlns:xlink="http://www.w3.org/1999/xlink">
<g id="graph1" class="graph" transform="scale(1 1) rotate(0) translate(4 913)">
<title>controllers_diagram</title>
<polygon fill="white" stroke="white" points="-4,5 -4,-913 917,-913 917,5 -4,5"/>
<!-- _diagram_info -->
<g id="node1" class="node"><title>_diagram_info</title>
<text text-anchor="start" x="537" y="-126.3" font-family="Times Roman,serif" font-size="13.00">Controllers diagram</text>
<text text-anchor="start" x="537" y="-109.3" font-family="Times Roman,serif" font-size="13.00">Date: Aug 02 2012 &#45; 10:52</text>
<text text-anchor="start" x="537" y="-92.3" font-family="Times Roman,serif" font-size="13.00">Migration version: 20100825101857</text>
<text text-anchor="start" x="537" y="-75.3" font-family="Times Roman,serif" font-size="13.00">Generated by RailRoady 1.0.8</text>
<text text-anchor="start" x="537" y="-58.3" font-family="Times Roman,serif" font-size="13.00">http://railroady.prestonlee.com</text>
</g>
<!-- PlayersController -->
<g id="node2" class="node"><title>PlayersController</title>
<polyline fill="none" stroke="black" points="61,-1.5 173,-1.5 "/>
<path fill="none" stroke="black" d="M173,-1.5C179,-1.5 185,-7.5 185,-13.5"/>
<polyline fill="none" stroke="black" points="185,-13.5 185,-89.5 "/>
<path fill="none" stroke="black" d="M185,-89.5C185,-95.5 179,-101.5 173,-101.5"/>
<polyline fill="none" stroke="black" points="173,-101.5 61,-101.5 "/>
<path fill="none" stroke="black" d="M61,-101.5C55,-101.5 49,-95.5 49,-89.5"/>
<polyline fill="none" stroke="black" points="49,-89.5 49,-13.5 "/>
<path fill="none" stroke="black" d="M49,-13.5C49,-7.5 55,-1.5 61,-1.5"/>
<text text-anchor="middle" x="117" y="-84.9" font-family="Times Roman,serif" font-size="14.00">PlayersController</text>
<polyline fill="none" stroke="black" points="49,-75.5 185,-75.5 "/>
<polyline fill="none" stroke="black" points="49,-51.5 185,-51.5 "/>
<polyline fill="none" stroke="black" points="49,-27.5 185,-27.5 "/>
<text text-anchor="start" x="57" y="-10.9" font-family="Times Roman,serif" font-size="14.00">_layout</text>
</g>
<!-- RoundsController -->
<g id="node3" class="node"><title>RoundsController</title>
<polyline fill="none" stroke="black" points="61,-289.5 173,-289.5 "/>
<path fill="none" stroke="black" d="M173,-289.5C179,-289.5 185,-295.5 185,-301.5"/>
<polyline fill="none" stroke="black" points="185,-301.5 185,-415.5 "/>
<path fill="none" stroke="black" d="M185,-415.5C185,-421.5 179,-427.5 173,-427.5"/>
<polyline fill="none" stroke="black" points="173,-427.5 61,-427.5 "/>
<path fill="none" stroke="black" d="M61,-427.5C55,-427.5 49,-421.5 49,-415.5"/>
<polyline fill="none" stroke="black" points="49,-415.5 49,-301.5 "/>
<path fill="none" stroke="black" d="M49,-301.5C49,-295.5 55,-289.5 61,-289.5"/>
<text text-anchor="middle" x="117" y="-410.9" font-family="Times Roman,serif" font-size="14.00">RoundsController</text>
<polyline fill="none" stroke="black" points="49,-401.5 185,-401.5 "/>
<text text-anchor="start" x="57" y="-384.9" font-family="Times Roman,serif" font-size="14.00">next</text>
<text text-anchor="start" x="57" y="-366.9" font-family="Times Roman,serif" font-size="14.00">previous</text>
<text text-anchor="start" x="57" y="-348.9" font-family="Times Roman,serif" font-size="14.00">show</text>
<polyline fill="none" stroke="black" points="49,-339.5 185,-339.5 "/>
<polyline fill="none" stroke="black" points="49,-315.5 185,-315.5 "/>
<text text-anchor="start" x="57" y="-298.9" font-family="Times Roman,serif" font-size="14.00">_layout</text>
</g>
<!-- UserSessionsController -->
<g id="node4" class="node"><title>UserSessionsController</title>
<polyline fill="none" stroke="black" points="181,-625.5 333,-625.5 "/>
<path fill="none" stroke="black" d="M333,-625.5C339,-625.5 345,-631.5 345,-637.5"/>
<polyline fill="none" stroke="black" points="345,-637.5 345,-769.5 "/>
<path fill="none" stroke="black" d="M345,-769.5C345,-775.5 339,-781.5 333,-781.5"/>
<polyline fill="none" stroke="black" points="333,-781.5 181,-781.5 "/>
<path fill="none" stroke="black" d="M181,-781.5C175,-781.5 169,-775.5 169,-769.5"/>
<polyline fill="none" stroke="black" points="169,-769.5 169,-637.5 "/>
<path fill="none" stroke="black" d="M169,-637.5C169,-631.5 175,-625.5 181,-625.5"/>
<text text-anchor="middle" x="257" y="-764.9" font-family="Times Roman,serif" font-size="14.00">UserSessionsController</text>
<polyline fill="none" stroke="black" points="169,-755.5 345,-755.5 "/>
<text text-anchor="start" x="177" y="-738.9" font-family="Times Roman,serif" font-size="14.00">create</text>
<text text-anchor="start" x="177" y="-720.9" font-family="Times Roman,serif" font-size="14.00">destroy</text>
<text text-anchor="start" x="177" y="-702.9" font-family="Times Roman,serif" font-size="14.00">index</text>
<text text-anchor="start" x="177" y="-684.9" font-family="Times Roman,serif" font-size="14.00">new</text>
<polyline fill="none" stroke="black" points="169,-675.5 345,-675.5 "/>
<polyline fill="none" stroke="black" points="169,-651.5 345,-651.5 "/>
<text text-anchor="start" x="177" y="-634.9" font-family="Times Roman,serif" font-size="14.00">_layout</text>
</g>
<!-- ClubsController -->
<g id="node5" class="node"><title>ClubsController</title>
<polyline fill="none" stroke="black" points="253,-73.5 476,-73.5 "/>
<path fill="none" stroke="black" d="M476,-73.5C482,-73.5 488,-79.5 488,-85.5"/>
<polyline fill="none" stroke="black" points="488,-85.5 488,-577.5 "/>
<path fill="none" stroke="black" d="M488,-577.5C488,-583.5 482,-589.5 476,-589.5"/>
<polyline fill="none" stroke="black" points="476,-589.5 253,-589.5 "/>
<path fill="none" stroke="black" d="M253,-589.5C247,-589.5 241,-583.5 241,-577.5"/>
<polyline fill="none" stroke="black" points="241,-577.5 241,-85.5 "/>
<path fill="none" stroke="black" d="M241,-85.5C241,-79.5 247,-73.5 253,-73.5"/>
<text text-anchor="middle" x="364.5" y="-572.9" font-family="Times Roman,serif" font-size="14.00">ClubsController</text>
<polyline fill="none" stroke="black" points="241,-563.5 488,-563.5 "/>
<text text-anchor="start" x="249" y="-546.9" font-family="Times Roman,serif" font-size="14.00">_one_time_conditions_valid_290?</text>
<text text-anchor="start" x="249" y="-528.9" font-family="Times Roman,serif" font-size="14.00">_one_time_conditions_valid_294?</text>
<text text-anchor="start" x="249" y="-510.9" font-family="Times Roman,serif" font-size="14.00">_one_time_conditions_valid_296?</text>
<text text-anchor="start" x="249" y="-492.9" font-family="Times Roman,serif" font-size="14.00">_one_time_conditions_valid_300?</text>
<text text-anchor="start" x="249" y="-474.9" font-family="Times Roman,serif" font-size="14.00">_one_time_conditions_valid_304?</text>
<text text-anchor="start" x="249" y="-456.9" font-family="Times Roman,serif" font-size="14.00">_one_time_conditions_valid_308?</text>
<text text-anchor="start" x="249" y="-438.9" font-family="Times Roman,serif" font-size="14.00">accept_offer</text>
<text text-anchor="start" x="249" y="-420.9" font-family="Times Roman,serif" font-size="14.00">cancel_offer</text>
<text text-anchor="start" x="249" y="-402.9" font-family="Times Roman,serif" font-size="14.00">finances</text>
<text text-anchor="start" x="249" y="-384.9" font-family="Times Roman,serif" font-size="14.00">make_offer</text>
<text text-anchor="start" x="249" y="-366.9" font-family="Times Roman,serif" font-size="14.00">received_offers</text>
<text text-anchor="start" x="249" y="-348.9" font-family="Times Roman,serif" font-size="14.00">reject_offer</text>
<text text-anchor="start" x="249" y="-330.9" font-family="Times Roman,serif" font-size="14.00">replace</text>
<text text-anchor="start" x="249" y="-312.9" font-family="Times Roman,serif" font-size="14.00">sent_offers</text>
<text text-anchor="start" x="249" y="-294.9" font-family="Times Roman,serif" font-size="14.00">tactic</text>
<text text-anchor="start" x="249" y="-276.9" font-family="Times Roman,serif" font-size="14.00">team</text>
<text text-anchor="start" x="249" y="-258.9" font-family="Times Roman,serif" font-size="14.00">ticket_price</text>
<text text-anchor="start" x="249" y="-240.9" font-family="Times Roman,serif" font-size="14.00">train_ability</text>
<text text-anchor="start" x="249" y="-222.9" font-family="Times Roman,serif" font-size="14.00">trainings</text>
<polyline fill="none" stroke="black" points="241,-213.5 488,-213.5 "/>
<polyline fill="none" stroke="black" points="241,-189.5 488,-189.5 "/>
<text text-anchor="start" x="249" y="-172.9" font-family="Times Roman,serif" font-size="14.00">_layout</text>
<text text-anchor="start" x="249" y="-154.9" font-family="Times Roman,serif" font-size="14.00">require_club</text>
<text text-anchor="start" x="249" y="-136.9" font-family="Times Roman,serif" font-size="14.00">require_not_propietary</text>
<text text-anchor="start" x="249" y="-118.9" font-family="Times Roman,serif" font-size="14.00">require_open_teams</text>
<text text-anchor="start" x="249" y="-100.9" font-family="Times Roman,serif" font-size="14.00">require_propietary</text>
<text text-anchor="start" x="249" y="-82.9" font-family="Times Roman,serif" font-size="14.00">set_club_user</text>
</g>
<!-- HomeController -->
<g id="node6" class="node"><title>HomeController</title>
<polyline fill="none" stroke="black" points="13,-721.5 114,-721.5 "/>
<path fill="none" stroke="black" d="M114,-721.5C120,-721.5 126,-727.5 126,-733.5"/>
<polyline fill="none" stroke="black" points="126,-733.5 126,-811.5 "/>
<path fill="none" stroke="black" d="M126,-811.5C126,-817.5 120,-823.5 114,-823.5"/>
<polyline fill="none" stroke="black" points="114,-823.5 13,-823.5 "/>
<path fill="none" stroke="black" d="M13,-823.5C7,-823.5 1,-817.5 1,-811.5"/>
<polyline fill="none" stroke="black" points="1,-811.5 1,-733.5 "/>
<path fill="none" stroke="black" d="M1,-733.5C1,-727.5 7,-721.5 13,-721.5"/>
<text text-anchor="middle" x="63.5" y="-806.9" font-family="Times Roman,serif" font-size="14.00">HomeController</text>
<polyline fill="none" stroke="black" points="1,-797.5 126,-797.5 "/>
<text text-anchor="start" x="9" y="-780.9" font-family="Times Roman,serif" font-size="14.00">index</text>
<polyline fill="none" stroke="black" points="1,-771.5 126,-771.5 "/>
<polyline fill="none" stroke="black" points="1,-747.5 126,-747.5 "/>
<text text-anchor="start" x="9" y="-730.9" font-family="Times Roman,serif" font-size="14.00">_layout</text>
</g>
<!-- ApplicationController -->
<g id="node7" class="node"><title>ApplicationController</title>
<polyline fill="none" stroke="black" points="685,-625.5 899,-625.5 "/>
<path fill="none" stroke="black" d="M899,-625.5C905,-625.5 911,-631.5 911,-637.5"/>
<polyline fill="none" stroke="black" points="911,-637.5 911,-895.5 "/>
<path fill="none" stroke="black" d="M911,-895.5C911,-901.5 905,-907.5 899,-907.5"/>
<polyline fill="none" stroke="black" points="899,-907.5 685,-907.5 "/>
<path fill="none" stroke="black" d="M685,-907.5C679,-907.5 673,-901.5 673,-895.5"/>
<polyline fill="none" stroke="black" points="673,-895.5 673,-637.5 "/>
<path fill="none" stroke="black" d="M673,-637.5C673,-631.5 679,-625.5 685,-625.5"/>
<text text-anchor="middle" x="792" y="-890.9" font-family="Times Roman,serif" font-size="14.00">ApplicationController</text>
<polyline fill="none" stroke="black" points="673,-881.5 911,-881.5 "/>
<text text-anchor="start" x="681" y="-864.9" font-family="Times Roman,serif" font-size="14.00">_one_time_conditions_valid_74?</text>
<text text-anchor="start" x="681" y="-846.9" font-family="Times Roman,serif" font-size="14.00">_one_time_conditions_valid_76?</text>
<text text-anchor="start" x="681" y="-828.9" font-family="Times Roman,serif" font-size="14.00">default_url_options</text>
<polyline fill="none" stroke="black" points="673,-819.5 911,-819.5 "/>
<polyline fill="none" stroke="black" points="673,-795.5 911,-795.5 "/>
<text text-anchor="start" x="681" y="-778.9" font-family="Times Roman,serif" font-size="14.00">_layout</text>
<text text-anchor="start" x="681" y="-760.9" font-family="Times Roman,serif" font-size="14.00">current_season</text>
<text text-anchor="start" x="681" y="-742.9" font-family="Times Roman,serif" font-size="14.00">current_user</text>
<text text-anchor="start" x="681" y="-724.9" font-family="Times Roman,serif" font-size="14.00">current_user_session</text>
<text text-anchor="start" x="681" y="-706.9" font-family="Times Roman,serif" font-size="14.00">redirect_back_or_default</text>
<text text-anchor="start" x="681" y="-688.9" font-family="Times Roman,serif" font-size="14.00">require_admin</text>
<text text-anchor="start" x="681" y="-670.9" font-family="Times Roman,serif" font-size="14.00">require_user</text>
<text text-anchor="start" x="681" y="-652.9" font-family="Times Roman,serif" font-size="14.00">set_locale</text>
<text text-anchor="start" x="681" y="-634.9" font-family="Times Roman,serif" font-size="14.00">store_location</text>
</g>
<!-- LeaguesController -->
<g id="node8" class="node"><title>LeaguesController</title>
<polyline fill="none" stroke="black" points="541,-193.5 764,-193.5 "/>
<path fill="none" stroke="black" d="M764,-193.5C770,-193.5 776,-199.5 776,-205.5"/>
<polyline fill="none" stroke="black" points="776,-205.5 776,-571.5 "/>
<path fill="none" stroke="black" d="M776,-571.5C776,-577.5 770,-583.5 764,-583.5"/>
<polyline fill="none" stroke="black" points="764,-583.5 541,-583.5 "/>
<path fill="none" stroke="black" d="M541,-583.5C535,-583.5 529,-577.5 529,-571.5"/>
<polyline fill="none" stroke="black" points="529,-571.5 529,-205.5 "/>
<path fill="none" stroke="black" d="M529,-205.5C529,-199.5 535,-193.5 541,-193.5"/>
<text text-anchor="middle" x="652.5" y="-566.9" font-family="Times Roman,serif" font-size="14.00">LeaguesController</text>
<polyline fill="none" stroke="black" points="529,-557.5 776,-557.5 "/>
<text text-anchor="start" x="537" y="-540.9" font-family="Times Roman,serif" font-size="14.00">_one_time_conditions_valid_332?</text>
<text text-anchor="start" x="537" y="-522.9" font-family="Times Roman,serif" font-size="14.00">_one_time_conditions_valid_336?</text>
<text text-anchor="start" x="537" y="-504.9" font-family="Times Roman,serif" font-size="14.00">close_teams</text>
<text text-anchor="start" x="537" y="-486.9" font-family="Times Roman,serif" font-size="14.00">create_calendar</text>
<text text-anchor="start" x="537" y="-468.9" font-family="Times Roman,serif" font-size="14.00">index</text>
<text text-anchor="start" x="537" y="-450.9" font-family="Times Roman,serif" font-size="14.00">message_create</text>
<text text-anchor="start" x="537" y="-432.9" font-family="Times Roman,serif" font-size="14.00">message_destroy</text>
<text text-anchor="start" x="537" y="-414.9" font-family="Times Roman,serif" font-size="14.00">message_edit</text>
<text text-anchor="start" x="537" y="-396.9" font-family="Times Roman,serif" font-size="14.00">message_modify</text>
<text text-anchor="start" x="537" y="-378.9" font-family="Times Roman,serif" font-size="14.00">message_new</text>
<text text-anchor="start" x="537" y="-360.9" font-family="Times Roman,serif" font-size="14.00">messages</text>
<text text-anchor="start" x="537" y="-342.9" font-family="Times Roman,serif" font-size="14.00">new_leagues</text>
<text text-anchor="start" x="537" y="-324.9" font-family="Times Roman,serif" font-size="14.00">next_rounds</text>
<text text-anchor="start" x="537" y="-306.9" font-family="Times Roman,serif" font-size="14.00">open_teams</text>
<text text-anchor="start" x="537" y="-288.9" font-family="Times Roman,serif" font-size="14.00">promotion</text>
<text text-anchor="start" x="537" y="-270.9" font-family="Times Roman,serif" font-size="14.00">simulate_rounds</text>
<text text-anchor="start" x="537" y="-252.9" font-family="Times Roman,serif" font-size="14.00">start_rounds</text>
<polyline fill="none" stroke="black" points="529,-243.5 776,-243.5 "/>
<polyline fill="none" stroke="black" points="529,-219.5 776,-219.5 "/>
<text text-anchor="start" x="537" y="-202.9" font-family="Times Roman,serif" font-size="14.00">_layout</text>
</g>
<!-- SeasonsController -->
<g id="node9" class="node"><title>SeasonsController</title>
<polyline fill="none" stroke="black" points="61,-145.5 179,-145.5 "/>
<path fill="none" stroke="black" d="M179,-145.5C185,-145.5 191,-151.5 191,-157.5"/>
<polyline fill="none" stroke="black" points="191,-157.5 191,-235.5 "/>
<path fill="none" stroke="black" d="M191,-235.5C191,-241.5 185,-247.5 179,-247.5"/>
<polyline fill="none" stroke="black" points="179,-247.5 61,-247.5 "/>
<path fill="none" stroke="black" d="M61,-247.5C55,-247.5 49,-241.5 49,-235.5"/>
<polyline fill="none" stroke="black" points="49,-235.5 49,-157.5 "/>
<path fill="none" stroke="black" d="M49,-157.5C49,-151.5 55,-145.5 61,-145.5"/>
<text text-anchor="middle" x="120" y="-230.9" font-family="Times Roman,serif" font-size="14.00">SeasonsController</text>
<polyline fill="none" stroke="black" points="49,-221.5 191,-221.5 "/>
<text text-anchor="start" x="57" y="-204.9" font-family="Times Roman,serif" font-size="14.00">show</text>
<polyline fill="none" stroke="black" points="49,-195.5 191,-195.5 "/>
<polyline fill="none" stroke="black" points="49,-171.5 191,-171.5 "/>
<text text-anchor="start" x="57" y="-154.9" font-family="Times Roman,serif" font-size="14.00">_layout</text>
</g>
<!-- UsersController -->
<g id="node10" class="node"><title>UsersController</title>
<polyline fill="none" stroke="black" points="397,-625.5 620,-625.5 "/>
<path fill="none" stroke="black" d="M620,-625.5C626,-625.5 632,-631.5 632,-637.5"/>
<polyline fill="none" stroke="black" points="632,-637.5 632,-805.5 "/>
<path fill="none" stroke="black" d="M632,-805.5C632,-811.5 626,-817.5 620,-817.5"/>
<polyline fill="none" stroke="black" points="620,-817.5 397,-817.5 "/>
<path fill="none" stroke="black" d="M397,-817.5C391,-817.5 385,-811.5 385,-805.5"/>
<polyline fill="none" stroke="black" points="385,-805.5 385,-637.5 "/>
<path fill="none" stroke="black" d="M385,-637.5C385,-631.5 391,-625.5 397,-625.5"/>
<text text-anchor="middle" x="508.5" y="-800.9" font-family="Times Roman,serif" font-size="14.00">UsersController</text>
<polyline fill="none" stroke="black" points="385,-791.5 632,-791.5 "/>
<text text-anchor="start" x="393" y="-774.9" font-family="Times Roman,serif" font-size="14.00">_one_time_conditions_valid_436?</text>
<text text-anchor="start" x="393" y="-756.9" font-family="Times Roman,serif" font-size="14.00">_one_time_conditions_valid_442?</text>
<text text-anchor="start" x="393" y="-738.9" font-family="Times Roman,serif" font-size="14.00">all</text>
<text text-anchor="start" x="393" y="-720.9" font-family="Times Roman,serif" font-size="14.00">create</text>
<text text-anchor="start" x="393" y="-702.9" font-family="Times Roman,serif" font-size="14.00">new</text>
<text text-anchor="start" x="393" y="-684.9" font-family="Times Roman,serif" font-size="14.00">no_club</text>
<polyline fill="none" stroke="black" points="385,-675.5 632,-675.5 "/>
<polyline fill="none" stroke="black" points="385,-651.5 632,-651.5 "/>
<text text-anchor="start" x="393" y="-634.9" font-family="Times Roman,serif" font-size="14.00">_layout</text>
</g>
<!-- MatchGeneralsController -->
<g id="node11" class="node"><title>MatchGeneralsController</title>
<polyline fill="none" stroke="black" points="13,-481.5 178,-481.5 "/>
<path fill="none" stroke="black" d="M178,-481.5C184,-481.5 190,-487.5 190,-493.5"/>
<polyline fill="none" stroke="black" points="190,-493.5 190,-571.5 "/>
<path fill="none" stroke="black" d="M190,-571.5C190,-577.5 184,-583.5 178,-583.5"/>
<polyline fill="none" stroke="black" points="178,-583.5 13,-583.5 "/>
<path fill="none" stroke="black" d="M13,-583.5C7,-583.5 1,-577.5 1,-571.5"/>
<polyline fill="none" stroke="black" points="1,-571.5 1,-493.5 "/>
<path fill="none" stroke="black" d="M1,-493.5C1,-487.5 7,-481.5 13,-481.5"/>
<text text-anchor="middle" x="95.5" y="-566.9" font-family="Times Roman,serif" font-size="14.00">MatchGeneralsController</text>
<polyline fill="none" stroke="black" points="1,-557.5 190,-557.5 "/>
<text text-anchor="start" x="9" y="-540.9" font-family="Times Roman,serif" font-size="14.00">show</text>
<polyline fill="none" stroke="black" points="1,-531.5 190,-531.5 "/>
<polyline fill="none" stroke="black" points="1,-507.5 190,-507.5 "/>
<text text-anchor="start" x="9" y="-490.9" font-family="Times Roman,serif" font-size="14.00">_layout</text>
</g>
</g>
</svg>
