<?xml version="1.0" encoding="UTF-8" standalone="no"?>
<!DOCTYPE svg PUBLIC "-//W3C//DTD SVG 1.1//EN"
 "http://www.w3.org/Graphics/SVG/1.1/DTD/svg11.dtd">
<!-- Generated by graphviz version 2.26.3 (20100126.1600)
 -->
<!-- Title: models_diagram Pages: 1 -->
<svg width="1468pt" height="1380pt"
 viewBox="0.00 0.00 1468.49 1380.00" xmlns="http://www.w3.org/2000/svg" xmlns:xlink="http://www.w3.org/1999/xlink">
<g id="graph1" class="graph" transform="scale(1 1) rotate(0) translate(4 1376)">
<title>models_diagram</title>
<polygon fill="white" stroke="white" points="-4,5 -4,-1376 1465.49,-1376 1465.49,5 -4,5"/>
<!-- _diagram_info -->
<g id="node1" class="node"><title>_diagram_info</title>
<text text-anchor="start" x="364.491" y="-1339.8" font-family="Times Roman,serif" font-size="13.00">Models diagram</text>
<text text-anchor="start" x="364.491" y="-1322.8" font-family="Times Roman,serif" font-size="13.00">Date: Aug 02 2012 &#45; 10:52</text>
<text text-anchor="start" x="364.491" y="-1305.8" font-family="Times Roman,serif" font-size="13.00">Migration version: 20100825101857</text>
<text text-anchor="start" x="364.491" y="-1288.8" font-family="Times Roman,serif" font-size="13.00">Generated by RailRoady 1.0.8</text>
<text text-anchor="start" x="364.491" y="-1271.8" font-family="Times Roman,serif" font-size="13.00">http://railroady.prestonlee.com</text>
</g>
<!-- Season -->
<g id="node2" class="node"><title>Season</title>
<polyline fill="none" stroke="black" points="635.991,-966 776.991,-966 "/>
<path fill="none" stroke="black" d="M776.991,-966C782.991,-966 788.991,-972 788.991,-978"/>
<polyline fill="none" stroke="black" points="788.991,-978 788.991,-1114 "/>
<path fill="none" stroke="black" d="M788.991,-1114C788.991,-1120 782.991,-1126 776.991,-1126"/>
<polyline fill="none" stroke="black" points="776.991,-1126 635.991,-1126 "/>
<path fill="none" stroke="black" d="M635.991,-1126C629.991,-1126 623.991,-1120 623.991,-1114"/>
<polyline fill="none" stroke="black" points="623.991,-1114 623.991,-978 "/>
<path fill="none" stroke="black" d="M623.991,-978C623.991,-972 629.991,-966 635.991,-966"/>
<text text-anchor="middle" x="706.491" y="-1109.4" font-family="Times Roman,serif" font-size="14.00">Season</text>
<polyline fill="none" stroke="black" points="623.991,-1100 788.991,-1100 "/>
<text text-anchor="start" x="631.991" y="-1083.4" font-family="Times Roman,serif" font-size="14.00">id :integer</text>
<text text-anchor="start" x="631.991" y="-1065.4" font-family="Times Roman,serif" font-size="14.00">league_id :integer</text>
<text text-anchor="start" x="631.991" y="-1047.4" font-family="Times Roman,serif" font-size="14.00">date :integer</text>
<text text-anchor="start" x="631.991" y="-1029.4" font-family="Times Roman,serif" font-size="14.00">actual_round :integer</text>
<text text-anchor="start" x="631.991" y="-1011.4" font-family="Times Roman,serif" font-size="14.00">created_at :datetime</text>
<text text-anchor="start" x="631.991" y="-993.4" font-family="Times Roman,serif" font-size="14.00">updated_at :datetime</text>
<text text-anchor="start" x="631.991" y="-975.4" font-family="Times Roman,serif" font-size="14.00">season_state :integer</text>
</g>
<!-- Club -->
<g id="node4" class="node"><title>Club</title>
<polyline fill="none" stroke="black" points="369.491,-631 539.491,-631 "/>
<path fill="none" stroke="black" d="M539.491,-631C545.491,-631 551.491,-637 551.491,-643"/>
<polyline fill="none" stroke="black" points="551.491,-643 551.491,-833 "/>
<path fill="none" stroke="black" d="M551.491,-833C551.491,-839 545.491,-845 539.491,-845"/>
<polyline fill="none" stroke="black" points="539.491,-845 369.491,-845 "/>
<path fill="none" stroke="black" d="M369.491,-845C363.491,-845 357.491,-839 357.491,-833"/>
<polyline fill="none" stroke="black" points="357.491,-833 357.491,-643 "/>
<path fill="none" stroke="black" d="M357.491,-643C357.491,-637 363.491,-631 369.491,-631"/>
<text text-anchor="middle" x="454.491" y="-828.4" font-family="Times Roman,serif" font-size="14.00">Club</text>
<polyline fill="none" stroke="black" points="357.491,-819 551.491,-819 "/>
<text text-anchor="start" x="365.491" y="-802.4" font-family="Times Roman,serif" font-size="14.00">id :integer</text>
<text text-anchor="start" x="365.491" y="-784.4" font-family="Times Roman,serif" font-size="14.00">name :string</text>
<text text-anchor="start" x="365.491" y="-766.4" font-family="Times Roman,serif" font-size="14.00">stadium_name :string</text>
<text text-anchor="start" x="365.491" y="-748.4" font-family="Times Roman,serif" font-size="14.00">stadium_capacity :integer</text>
<text text-anchor="start" x="365.491" y="-730.4" font-family="Times Roman,serif" font-size="14.00">created_at :datetime</text>
<text text-anchor="start" x="365.491" y="-712.4" font-family="Times Roman,serif" font-size="14.00">updated_at :datetime</text>
<text text-anchor="start" x="365.491" y="-694.4" font-family="Times Roman,serif" font-size="14.00">user_id :integer</text>
<text text-anchor="start" x="365.491" y="-676.4" font-family="Times Roman,serif" font-size="14.00">cash :decimal</text>
<text text-anchor="start" x="365.491" y="-658.4" font-family="Times Roman,serif" font-size="14.00">ticket_price :decimal</text>
<text text-anchor="start" x="365.491" y="-640.4" font-family="Times Roman,serif" font-size="14.00">tactic :string</text>
</g>
<!-- Season&#45;&gt;Club -->
<g id="edge4" class="edge"><title>Season&#45;&gt;Club</title>
<path fill="none" stroke="#b91f64" d="M634.5,-958.011C607.78,-925.353 577.062,-887.809 548.655,-853.089"/>
<polygon fill="#b91f64" stroke="#b91f64" points="634.606,-958.141 637.456,-968.73 637.772,-962.011 640.939,-965.881 640.939,-965.881 640.939,-965.881 637.772,-962.011 644.422,-963.031 634.606,-958.141 634.606,-958.141"/>
<polygon fill="#b91f64" stroke="#b91f64" points="548.584,-853.003 545.735,-842.414 545.418,-849.133 542.252,-845.263 542.252,-845.263 542.252,-845.263 545.418,-849.133 538.769,-848.113 548.584,-853.003 548.584,-853.003"/>
</g>
<!-- Round -->
<g id="node11" class="node"><title>Round</title>
<polyline fill="none" stroke="black" points="673.491,-658 843.491,-658 "/>
<path fill="none" stroke="black" d="M843.491,-658C849.491,-658 855.491,-664 855.491,-670"/>
<polyline fill="none" stroke="black" points="855.491,-670 855.491,-806 "/>
<path fill="none" stroke="black" d="M855.491,-806C855.491,-812 849.491,-818 843.491,-818"/>
<polyline fill="none" stroke="black" points="843.491,-818 673.491,-818 "/>
<path fill="none" stroke="black" d="M673.491,-818C667.491,-818 661.491,-812 661.491,-806"/>
<polyline fill="none" stroke="black" points="661.491,-806 661.491,-670 "/>
<path fill="none" stroke="black" d="M661.491,-670C661.491,-664 667.491,-658 673.491,-658"/>
<text text-anchor="middle" x="758.491" y="-801.4" font-family="Times Roman,serif" font-size="14.00">Round</text>
<polyline fill="none" stroke="black" points="661.491,-792 855.491,-792 "/>
<text text-anchor="start" x="669.491" y="-775.4" font-family="Times Roman,serif" font-size="14.00">id :integer</text>
<text text-anchor="start" x="669.491" y="-757.4" font-family="Times Roman,serif" font-size="14.00">season_id :integer</text>
<text text-anchor="start" x="669.491" y="-739.4" font-family="Times Roman,serif" font-size="14.00">number :integer</text>
<text text-anchor="start" x="669.491" y="-721.4" font-family="Times Roman,serif" font-size="14.00">created_at :datetime</text>
<text text-anchor="start" x="669.491" y="-703.4" font-family="Times Roman,serif" font-size="14.00">updated_at :datetime</text>
<text text-anchor="start" x="669.491" y="-685.4" font-family="Times Roman,serif" font-size="14.00">state_simulation :boolean</text>
<text text-anchor="start" x="669.491" y="-667.4" font-family="Times Roman,serif" font-size="14.00">start_time :datetime</text>
</g>
<!-- Season&#45;&gt;Round -->
<g id="edge2" class="edge"><title>Season&#45;&gt;Round</title>
<path fill="none" stroke="#805aa1" d="M721.385,-957.78C728.241,-917.171 736.366,-869.048 743.262,-828.2"/>
<ellipse fill="none" stroke="#805aa1" cx="720.683" cy="-961.936" rx="4.00001" ry="4.00001"/>
<polygon fill="#805aa1" stroke="#805aa1" points="743.277,-828.113 749.379,-819.002 744.109,-823.183 744.942,-818.253 744.942,-818.253 744.942,-818.253 744.109,-823.183 740.505,-817.503 743.277,-828.113 743.277,-828.113"/>
</g>
<!-- Training -->
<g id="node3" class="node"><title>Training</title>
<polyline fill="none" stroke="black" points="433.991,-10 576.991,-10 "/>
<path fill="none" stroke="black" d="M576.991,-10C582.991,-10 588.991,-16 588.991,-22"/>
<polyline fill="none" stroke="black" points="588.991,-22 588.991,-158 "/>
<path fill="none" stroke="black" d="M588.991,-158C588.991,-164 582.991,-170 576.991,-170"/>
<polyline fill="none" stroke="black" points="576.991,-170 433.991,-170 "/>
<path fill="none" stroke="black" d="M433.991,-170C427.991,-170 421.991,-164 421.991,-158"/>
<polyline fill="none" stroke="black" points="421.991,-158 421.991,-22 "/>
<path fill="none" stroke="black" d="M421.991,-22C421.991,-16 427.991,-10 433.991,-10"/>
<text text-anchor="middle" x="505.491" y="-153.4" font-family="Times Roman,serif" font-size="14.00">Training</text>
<polyline fill="none" stroke="black" points="421.991,-144 588.991,-144 "/>
<text text-anchor="start" x="429.991" y="-127.4" font-family="Times Roman,serif" font-size="14.00">id :integer</text>
<text text-anchor="start" x="429.991" y="-109.4" font-family="Times Roman,serif" font-size="14.00">player_id :integer</text>
<text text-anchor="start" x="429.991" y="-91.4" font-family="Times Roman,serif" font-size="14.00">ability :string</text>
<text text-anchor="start" x="429.991" y="-73.4" font-family="Times Roman,serif" font-size="14.00">improvement :integer</text>
<text text-anchor="start" x="429.991" y="-55.4" font-family="Times Roman,serif" font-size="14.00">round_count :integer</text>
<text text-anchor="start" x="429.991" y="-37.4" font-family="Times Roman,serif" font-size="14.00">created_at :datetime</text>
<text text-anchor="start" x="429.991" y="-19.4" font-family="Times Roman,serif" font-size="14.00">updated_at :datetime</text>
</g>
<!-- Player -->
<g id="node5" class="node"><title>Player</title>
<polyline fill="none" stroke="black" points="345.991,-235 486.991,-235 "/>
<path fill="none" stroke="black" d="M486.991,-235C492.991,-235 498.991,-241 498.991,-247"/>
<polyline fill="none" stroke="black" points="498.991,-247 498.991,-563 "/>
<path fill="none" stroke="black" d="M498.991,-563C498.991,-569 492.991,-575 486.991,-575"/>
<polyline fill="none" stroke="black" points="486.991,-575 345.991,-575 "/>
<path fill="none" stroke="black" d="M345.991,-575C339.991,-575 333.991,-569 333.991,-563"/>
<polyline fill="none" stroke="black" points="333.991,-563 333.991,-247 "/>
<path fill="none" stroke="black" d="M333.991,-247C333.991,-241 339.991,-235 345.991,-235"/>
<text text-anchor="middle" x="416.491" y="-558.4" font-family="Times Roman,serif" font-size="14.00">Player</text>
<polyline fill="none" stroke="black" points="333.991,-549 498.991,-549 "/>
<text text-anchor="start" x="341.991" y="-532.4" font-family="Times Roman,serif" font-size="14.00">id :integer</text>
<text text-anchor="start" x="341.991" y="-514.4" font-family="Times Roman,serif" font-size="14.00">name :string</text>
<text text-anchor="start" x="341.991" y="-496.4" font-family="Times Roman,serif" font-size="14.00">surname :string</text>
<text text-anchor="start" x="341.991" y="-478.4" font-family="Times Roman,serif" font-size="14.00">quality :integer</text>
<text text-anchor="start" x="341.991" y="-460.4" font-family="Times Roman,serif" font-size="14.00">club_id :integer</text>
<text text-anchor="start" x="341.991" y="-442.4" font-family="Times Roman,serif" font-size="14.00">created_at :datetime</text>
<text text-anchor="start" x="341.991" y="-424.4" font-family="Times Roman,serif" font-size="14.00">updated_at :datetime</text>
<text text-anchor="start" x="341.991" y="-406.4" font-family="Times Roman,serif" font-size="14.00">pay :decimal</text>
<text text-anchor="start" x="341.991" y="-388.4" font-family="Times Roman,serif" font-size="14.00">clause :decimal</text>
<text text-anchor="start" x="341.991" y="-370.4" font-family="Times Roman,serif" font-size="14.00">speed :integer</text>
<text text-anchor="start" x="341.991" y="-352.4" font-family="Times Roman,serif" font-size="14.00">resistance :integer</text>
<text text-anchor="start" x="341.991" y="-334.4" font-family="Times Roman,serif" font-size="14.00">dribbling :integer</text>
<text text-anchor="start" x="341.991" y="-316.4" font-family="Times Roman,serif" font-size="14.00">kick :integer</text>
<text text-anchor="start" x="341.991" y="-298.4" font-family="Times Roman,serif" font-size="14.00">pass :integer</text>
<text text-anchor="start" x="341.991" y="-280.4" font-family="Times Roman,serif" font-size="14.00">recovery :integer</text>
<text text-anchor="start" x="341.991" y="-262.4" font-family="Times Roman,serif" font-size="14.00">goalkeeper :integer</text>
<text text-anchor="start" x="341.991" y="-244.4" font-family="Times Roman,serif" font-size="14.00">position :integer</text>
</g>
<!-- Club&#45;&gt;Player -->
<g id="edge6" class="edge"><title>Club&#45;&gt;Player</title>
<path fill="none" stroke="#6fa5cd" d="M434.897,-622.826C434.404,-619.178 433.933,-615.562 433.491,-612 432.409,-603.29 431.38,-594.366 430.402,-585.345"/>
<ellipse fill="none" stroke="#6fa5cd" cx="435.461" cy="-626.894" rx="4.00001" ry="4.00001"/>
<polygon fill="#6fa5cd" stroke="#6fa5cd" points="430.373,-585.072 433.795,-574.653 429.847,-580.099 429.32,-575.127 429.32,-575.127 429.32,-575.127 429.847,-580.099 424.845,-575.601 430.373,-585.072 430.373,-585.072"/>
</g>
<!-- MatchGeneral -->
<g id="node7" class="node"><title>MatchGeneral</title>
<polyline fill="none" stroke="black" points="527.991,-298 668.991,-298 "/>
<path fill="none" stroke="black" d="M668.991,-298C674.991,-298 680.991,-304 680.991,-310"/>
<polyline fill="none" stroke="black" points="680.991,-310 680.991,-500 "/>
<path fill="none" stroke="black" d="M680.991,-500C680.991,-506 674.991,-512 668.991,-512"/>
<polyline fill="none" stroke="black" points="668.991,-512 527.991,-512 "/>
<path fill="none" stroke="black" d="M527.991,-512C521.991,-512 515.991,-506 515.991,-500"/>
<polyline fill="none" stroke="black" points="515.991,-500 515.991,-310 "/>
<path fill="none" stroke="black" d="M515.991,-310C515.991,-304 521.991,-298 527.991,-298"/>
<text text-anchor="middle" x="598.491" y="-495.4" font-family="Times Roman,serif" font-size="14.00">MatchGeneral</text>
<polyline fill="none" stroke="black" points="515.991,-486 680.991,-486 "/>
<text text-anchor="start" x="523.991" y="-469.4" font-family="Times Roman,serif" font-size="14.00">id :integer</text>
<text text-anchor="start" x="523.991" y="-451.4" font-family="Times Roman,serif" font-size="14.00">local_id :integer</text>
<text text-anchor="start" x="523.991" y="-433.4" font-family="Times Roman,serif" font-size="14.00">guest_id :integer</text>
<text text-anchor="start" x="523.991" y="-415.4" font-family="Times Roman,serif" font-size="14.00">local_goals :integer</text>
<text text-anchor="start" x="523.991" y="-397.4" font-family="Times Roman,serif" font-size="14.00">guest_goals :integer</text>
<text text-anchor="start" x="523.991" y="-379.4" font-family="Times Roman,serif" font-size="14.00">round_id :integer</text>
<text text-anchor="start" x="523.991" y="-361.4" font-family="Times Roman,serif" font-size="14.00">created_at :datetime</text>
<text text-anchor="start" x="523.991" y="-343.4" font-family="Times Roman,serif" font-size="14.00">updated_at :datetime</text>
<text text-anchor="start" x="523.991" y="-325.4" font-family="Times Roman,serif" font-size="14.00">spectators :integer</text>
<text text-anchor="start" x="523.991" y="-307.4" font-family="Times Roman,serif" font-size="14.00">ticket_price :decimal</text>
</g>
<!-- Club&#45;&gt;MatchGeneral -->
<g id="edge8" class="edge"><title>Club&#45;&gt;MatchGeneral</title>
<path fill="none" stroke="#6c8f7f" d="M556.055,-632.854C560.299,-626.048 564.16,-619.079 567.491,-612 580.489,-584.38 588.295,-552.598 592.916,-522.358"/>
<ellipse fill="none" stroke="#6c8f7f" cx="553.862" cy="-636.245" rx="4.00002" ry="4.00002"/>
<polygon fill="#6c8f7f" stroke="#6c8f7f" points="592.957,-522.071 598.819,-512.804 593.66,-517.121 594.364,-512.171 594.364,-512.171 594.364,-512.171 593.66,-517.121 589.909,-511.538 592.957,-522.071 592.957,-522.071"/>
<text text-anchor="middle" x="626.491" y="-599.4" font-family="Times Roman,serif" font-size="14.00">match_as_local</text>
</g>
<!-- Club&#45;&gt;MatchGeneral -->
<g id="edge12" class="edge"><title>Club&#45;&gt;MatchGeneral</title>
<path fill="none" stroke="#a23604" d="M438.557,-622.891C441.03,-612.536 445.152,-602.695 451.491,-594 466.891,-572.874 487.435,-592.769 507.491,-576 525.438,-560.994 540.35,-541.518 552.553,-521.108"/>
<ellipse fill="none" stroke="#a23604" cx="437.752" cy="-626.975" rx="4.00001" ry="4.00001"/>
<polygon fill="#a23604" stroke="#a23604" points="552.626,-520.979 561.517,-514.56 555.122,-516.647 557.617,-512.314 557.617,-512.314 557.617,-512.314 555.122,-516.647 553.718,-510.068 552.626,-520.979 552.626,-520.979"/>
<text text-anchor="middle" x="507.491" y="-599.4" font-family="Times Roman,serif" font-size="14.00">match_as_guest</text>
</g>
<!-- MatchDetail -->
<g id="node12" class="node"><title>MatchDetail</title>
<polyline fill="none" stroke="black" points="617.991,-1 790.991,-1 "/>
<path fill="none" stroke="black" d="M790.991,-1C796.991,-1 802.991,-7 802.991,-13"/>
<polyline fill="none" stroke="black" points="802.991,-13 802.991,-167 "/>
<path fill="none" stroke="black" d="M802.991,-167C802.991,-173 796.991,-179 790.991,-179"/>
<polyline fill="none" stroke="black" points="790.991,-179 617.991,-179 "/>
<path fill="none" stroke="black" d="M617.991,-179C611.991,-179 605.991,-173 605.991,-167"/>
<polyline fill="none" stroke="black" points="605.991,-167 605.991,-13 "/>
<path fill="none" stroke="black" d="M605.991,-13C605.991,-7 611.991,-1 617.991,-1"/>
<text text-anchor="middle" x="704.491" y="-162.4" font-family="Times Roman,serif" font-size="14.00">MatchDetail</text>
<polyline fill="none" stroke="black" points="605.991,-153 802.991,-153 "/>
<text text-anchor="start" x="613.991" y="-136.4" font-family="Times Roman,serif" font-size="14.00">id :integer</text>
<text text-anchor="start" x="613.991" y="-118.4" font-family="Times Roman,serif" font-size="14.00">player_id :integer</text>
<text text-anchor="start" x="613.991" y="-100.4" font-family="Times Roman,serif" font-size="14.00">club_id :integer</text>
<text text-anchor="start" x="613.991" y="-82.4" font-family="Times Roman,serif" font-size="14.00">match_general_id :integer</text>
<text text-anchor="start" x="613.991" y="-64.4" font-family="Times Roman,serif" font-size="14.00">action :string</text>
<text text-anchor="start" x="613.991" y="-46.4" font-family="Times Roman,serif" font-size="14.00">minute :integer</text>
<text text-anchor="start" x="613.991" y="-28.4" font-family="Times Roman,serif" font-size="14.00">created_at :datetime</text>
<text text-anchor="start" x="613.991" y="-10.4" font-family="Times Roman,serif" font-size="14.00">updated_at :datetime</text>
</g>
<!-- Club&#45;&gt;MatchDetail -->
<g id="edge20" class="edge"><title>Club&#45;&gt;MatchDetail</title>
<path fill="none" stroke="#8406b0" d="M558.896,-681.55C617.851,-649.468 680.262,-615.064 682.491,-612 729.787,-546.994 722.134,-321.746 712.951,-189.329"/>
<ellipse fill="none" stroke="#8406b0" cx="555.242" cy="-683.537" rx="4.00002" ry="4.00002"/>
<polygon fill="#8406b0" stroke="#8406b0" points="712.939,-189.148 716.72,-178.855 712.585,-184.16 712.231,-179.173 712.231,-179.173 712.231,-179.173 712.585,-184.16 707.743,-179.491 712.939,-189.148 712.939,-189.148"/>
</g>
<!-- LineUp -->
<g id="node13" class="node"><title>LineUp</title>
<polyline fill="none" stroke="black" points="219.991,-10 392.991,-10 "/>
<path fill="none" stroke="black" d="M392.991,-10C398.991,-10 404.991,-16 404.991,-22"/>
<polyline fill="none" stroke="black" points="404.991,-22 404.991,-158 "/>
<path fill="none" stroke="black" d="M404.991,-158C404.991,-164 398.991,-170 392.991,-170"/>
<polyline fill="none" stroke="black" points="392.991,-170 219.991,-170 "/>
<path fill="none" stroke="black" d="M219.991,-170C213.991,-170 207.991,-164 207.991,-158"/>
<polyline fill="none" stroke="black" points="207.991,-158 207.991,-22 "/>
<path fill="none" stroke="black" d="M207.991,-22C207.991,-16 213.991,-10 219.991,-10"/>
<text text-anchor="middle" x="306.491" y="-153.4" font-family="Times Roman,serif" font-size="14.00">LineUp</text>
<polyline fill="none" stroke="black" points="207.991,-144 404.991,-144 "/>
<text text-anchor="start" x="215.991" y="-127.4" font-family="Times Roman,serif" font-size="14.00">id :integer</text>
<text text-anchor="start" x="215.991" y="-109.4" font-family="Times Roman,serif" font-size="14.00">club_id :integer</text>
<text text-anchor="start" x="215.991" y="-91.4" font-family="Times Roman,serif" font-size="14.00">match_general_id :integer</text>
<text text-anchor="start" x="215.991" y="-73.4" font-family="Times Roman,serif" font-size="14.00">player_id :integer</text>
<text text-anchor="start" x="215.991" y="-55.4" font-family="Times Roman,serif" font-size="14.00">position :integer</text>
<text text-anchor="start" x="215.991" y="-37.4" font-family="Times Roman,serif" font-size="14.00">created_at :datetime</text>
<text text-anchor="start" x="215.991" y="-19.4" font-family="Times Roman,serif" font-size="14.00">updated_at :datetime</text>
</g>
<!-- Club&#45;&gt;LineUp -->
<g id="edge18" class="edge"><title>Club&#45;&gt;LineUp</title>
<path fill="none" stroke="#f1f624" d="M352.538,-627.997C341.68,-611.517 332.175,-593.988 325.491,-576 276.867,-445.145 283.121,-280.616 293.652,-180.478"/>
<ellipse fill="none" stroke="#f1f624" cx="355.029" cy="-631.681" rx="4.00002" ry="4.00002"/>
<polygon fill="#f1f624" stroke="#f1f624" points="293.667,-180.334 299.223,-170.88 294.209,-175.363 294.75,-170.392 294.75,-170.392 294.75,-170.392 294.209,-175.363 290.276,-169.905 293.667,-180.334 293.667,-180.334"/>
</g>
<!-- ClubFinancesRound -->
<g id="node15" class="node"><title>ClubFinancesRound</title>
<polyline fill="none" stroke="black" points="748.491,-280 936.491,-280 "/>
<path fill="none" stroke="black" d="M936.491,-280C942.491,-280 948.491,-286 948.491,-292"/>
<polyline fill="none" stroke="black" points="948.491,-292 948.491,-518 "/>
<path fill="none" stroke="black" d="M948.491,-518C948.491,-524 942.491,-530 936.491,-530"/>
<polyline fill="none" stroke="black" points="936.491,-530 748.491,-530 "/>
<path fill="none" stroke="black" d="M748.491,-530C742.491,-530 736.491,-524 736.491,-518"/>
<polyline fill="none" stroke="black" points="736.491,-518 736.491,-292 "/>
<path fill="none" stroke="black" d="M736.491,-292C736.491,-286 742.491,-280 748.491,-280"/>
<text text-anchor="middle" x="842.491" y="-513.4" font-family="Times Roman,serif" font-size="14.00">ClubFinancesRound</text>
<polyline fill="none" stroke="black" points="736.491,-504 948.491,-504 "/>
<text text-anchor="start" x="744.491" y="-487.4" font-family="Times Roman,serif" font-size="14.00">id :integer</text>
<text text-anchor="start" x="744.491" y="-469.4" font-family="Times Roman,serif" font-size="14.00">club_id :integer</text>
<text text-anchor="start" x="744.491" y="-451.4" font-family="Times Roman,serif" font-size="14.00">round_id :integer</text>
<text text-anchor="start" x="744.491" y="-433.4" font-family="Times Roman,serif" font-size="14.00">cash :decimal</text>
<text text-anchor="start" x="744.491" y="-415.4" font-family="Times Roman,serif" font-size="14.00">pays_players :decimal</text>
<text text-anchor="start" x="744.491" y="-397.4" font-family="Times Roman,serif" font-size="14.00">pays_maintenance :decimal</text>
<text text-anchor="start" x="744.491" y="-379.4" font-family="Times Roman,serif" font-size="14.00">pays_transfers :decimal</text>
<text text-anchor="start" x="744.491" y="-361.4" font-family="Times Roman,serif" font-size="14.00">benefits_ticket :decimal</text>
<text text-anchor="start" x="744.491" y="-343.4" font-family="Times Roman,serif" font-size="14.00">benefits_trademark :decimal</text>
<text text-anchor="start" x="744.491" y="-325.4" font-family="Times Roman,serif" font-size="14.00">benefits_transfers :decimal</text>
<text text-anchor="start" x="744.491" y="-307.4" font-family="Times Roman,serif" font-size="14.00">created_at :datetime</text>
<text text-anchor="start" x="744.491" y="-289.4" font-family="Times Roman,serif" font-size="14.00">updated_at :datetime</text>
</g>
<!-- Club&#45;&gt;ClubFinancesRound -->
<g id="edge10" class="edge"><title>Club&#45;&gt;ClubFinancesRound</title>
<path fill="none" stroke="#c64c9d" d="M558.774,-675.122C588.378,-658.939 621.11,-642.567 652.491,-630 681.115,-618.537 694.918,-630.625 719.491,-612 745.079,-592.606 766.384,-566.217 783.674,-538.776"/>
<ellipse fill="none" stroke="#c64c9d" cx="555.22" cy="-677.079" rx="4.00002" ry="4.00002"/>
<polygon fill="#c64c9d" stroke="#c64c9d" points="783.685,-538.758 792.747,-532.584 786.298,-534.495 788.911,-530.233 788.911,-530.233 788.911,-530.233 786.298,-534.495 785.074,-527.881 783.685,-538.758 783.685,-538.758"/>
</g>
<!-- Offer -->
<g id="node16" class="node"><title>Offer</title>
<polyline fill="none" stroke="black" points="37.9909,-1 178.991,-1 "/>
<path fill="none" stroke="black" d="M178.991,-1C184.991,-1 190.991,-7 190.991,-13"/>
<polyline fill="none" stroke="black" points="190.991,-13 190.991,-167 "/>
<path fill="none" stroke="black" d="M190.991,-167C190.991,-173 184.991,-179 178.991,-179"/>
<polyline fill="none" stroke="black" points="178.991,-179 37.9909,-179 "/>
<path fill="none" stroke="black" d="M37.9909,-179C31.9909,-179 25.9909,-173 25.9909,-167"/>
<polyline fill="none" stroke="black" points="25.9909,-167 25.9909,-13 "/>
<path fill="none" stroke="black" d="M25.9909,-13C25.9909,-7 31.9909,-1 37.9909,-1"/>
<text text-anchor="middle" x="108.491" y="-162.4" font-family="Times Roman,serif" font-size="14.00">Offer</text>
<polyline fill="none" stroke="black" points="25.9909,-153 190.991,-153 "/>
<text text-anchor="start" x="33.9909" y="-136.4" font-family="Times Roman,serif" font-size="14.00">id :integer</text>
<text text-anchor="start" x="33.9909" y="-118.4" font-family="Times Roman,serif" font-size="14.00">club_id :integer</text>
<text text-anchor="start" x="33.9909" y="-100.4" font-family="Times Roman,serif" font-size="14.00">player_id :integer</text>
<text text-anchor="start" x="33.9909" y="-82.4" font-family="Times Roman,serif" font-size="14.00">buyer_id :integer</text>
<text text-anchor="start" x="33.9909" y="-64.4" font-family="Times Roman,serif" font-size="14.00">state :integer</text>
<text text-anchor="start" x="33.9909" y="-46.4" font-family="Times Roman,serif" font-size="14.00">created_at :datetime</text>
<text text-anchor="start" x="33.9909" y="-28.4" font-family="Times Roman,serif" font-size="14.00">updated_at :datetime</text>
<text text-anchor="start" x="33.9909" y="-10.4" font-family="Times Roman,serif" font-size="14.00">pay :decimal</text>
</g>
<!-- Club&#45;&gt;Offer -->
<g id="edge14" class="edge"><title>Club&#45;&gt;Offer</title>
<path fill="none" stroke="#39293c" d="M349.171,-711.2C239.064,-680.799 77.3516,-628.587 41.4909,-576 -37.2302,-460.561 12.4534,-293.499 58.3005,-188.38"/>
<ellipse fill="none" stroke="#39293c" cx="353.15" cy="-712.292" rx="4.00001" ry="4.00001"/>
<polygon fill="#39293c" stroke="#39293c" points="58.3896,-188.179 66.5524,-180.856 60.4136,-183.607 62.4376,-179.034 62.4376,-179.034 62.4376,-179.034 60.4136,-183.607 58.3227,-177.213 58.3896,-188.179 58.3896,-188.179"/>
<text text-anchor="middle" x="94.4909" y="-401.4" font-family="Times Roman,serif" font-size="14.00">offers_as_seller</text>
</g>
<!-- Club&#45;&gt;Offer -->
<g id="edge16" class="edge"><title>Club&#45;&gt;Offer</title>
<path fill="none" stroke="#aabd71" d="M349.641,-705.553C287.51,-680.537 213.346,-639.309 173.491,-576 132.885,-511.498 160.4,-309.118 147.491,-234 144.972,-219.342 141.621,-204.015 137.938,-189.056"/>
<ellipse fill="none" stroke="#aabd71" cx="353.435" cy="-707.053" rx="4.00001" ry="4.00001"/>
<polygon fill="#aabd71" stroke="#aabd71" points="137.92,-188.987 139.838,-178.19 136.698,-184.138 135.475,-179.29 135.475,-179.29 135.475,-179.29 136.698,-184.138 131.111,-180.391 137.92,-188.987 137.92,-188.987"/>
<text text-anchor="middle" x="227.991" y="-401.4" font-family="Times Roman,serif" font-size="14.00">offers_as_buyer</text>
</g>
<!-- Player&#45;&gt;Training -->
<g id="edge24" class="edge"><title>Player&#45;&gt;Training</title>
<path fill="none" stroke="#141272" d="M466.865,-226.711C471.44,-210.518 475.931,-194.622 480.14,-179.727"/>
<ellipse fill="none" stroke="#141272" cx="465.725" cy="-230.744" rx="4.00001" ry="4.00001"/>
<polygon fill="#141272" stroke="#141272" points="480.143,-179.713 487.193,-171.313 481.503,-174.901 482.862,-170.089 482.862,-170.089 482.862,-170.089 481.503,-174.901 478.532,-168.866 480.143,-179.713 480.143,-179.713"/>
</g>
<!-- Player&#45;&gt;MatchDetail -->
<g id="edge26" class="edge"><title>Player&#45;&gt;MatchDetail</title>
<path fill="none" stroke="#43719e" d="M504.529,-237.181C505.508,-236.108 506.496,-235.048 507.491,-234 539.618,-200.179 559.522,-207.099 597.491,-180 597.577,-179.938 597.664,-179.877 597.75,-179.815"/>
<ellipse fill="none" stroke="#43719e" cx="501.647" cy="-240.454" rx="4.00002" ry="4.00002"/>
<polygon fill="#43719e" stroke="#43719e" points="597.748,-179.817 608.481,-177.567 601.79,-176.873 605.831,-173.929 605.831,-173.929 605.831,-173.929 601.79,-176.873 603.182,-170.292 597.748,-179.817 597.748,-179.817"/>
<text text-anchor="middle" x="589.491" y="-203.4" font-family="Times Roman,serif" font-size="14.00">details</text>
</g>
<!-- Player&#45;&gt;LineUp -->
<g id="edge28" class="edge"><title>Player&#45;&gt;LineUp</title>
<path fill="none" stroke="#3a56d0" d="M370.925,-227.293C367.59,-217.319 364.108,-207.496 360.491,-198 358.135,-191.814 355.538,-185.51 352.796,-179.213"/>
<ellipse fill="none" stroke="#3a56d0" cx="372.195" cy="-231.147" rx="4.00001" ry="4.00001"/>
<polygon fill="#3a56d0" stroke="#3a56d0" points="352.762,-179.137 352.796,-168.171 350.724,-174.571 348.686,-170.005 348.686,-170.005 348.686,-170.005 350.724,-174.571 344.577,-171.839 352.762,-179.137 352.762,-179.137"/>
</g>
<!-- Player&#45;&gt;Offer -->
<g id="edge22" class="edge"><title>Player&#45;&gt;Offer</title>
<path fill="none" stroke="#33a143" d="M328.541,-282.375C314.025,-265.309 298.47,-248.633 282.491,-234 250.035,-204.278 233.757,-207.616 199.491,-180 199.318,-179.861 199.145,-179.721 198.972,-179.581"/>
<ellipse fill="none" stroke="#33a143" cx="331.267" cy="-285.615" rx="4.00002" ry="4.00002"/>
<polygon fill="#33a143" stroke="#33a143" points="198.866,-179.493 194.044,-169.644 195.018,-176.3 191.17,-173.107 191.17,-173.107 191.17,-173.107 195.018,-176.3 188.296,-176.57 198.866,-179.493 198.866,-179.493"/>
</g>
<!-- UserSession -->
<g id="node6" class="node"><title>UserSession</title>
<polygon fill="none" stroke="black" points="886.491,-1020 886.491,-1072 986.491,-1072 986.491,-1020 886.491,-1020"/>
<text text-anchor="middle" x="936.491" y="-1055.4" font-family="Times Roman,serif" font-size="14.00">UserSession</text>
<polyline fill="none" stroke="black" points="886.491,-1046 986.491,-1046 "/>
<text text-anchor="middle" x="936.491" y="-1029.4" font-family="Times Roman,serif" font-size="14.00"> </text>
</g>
<!-- MatchGeneral&#45;&gt;MatchDetail -->
<g id="edge32" class="edge"><title>MatchGeneral&#45;&gt;MatchDetail</title>
<path fill="none" stroke="#3a29df" d="M621.091,-289.872C628.449,-259.549 637.589,-227.168 648.491,-198 649.656,-194.884 650.889,-191.743 652.178,-188.591"/>
<ellipse fill="none" stroke="#3a29df" cx="620.091" cy="-294.057" rx="4.00001" ry="4.00001"/>
<polygon fill="#3a29df" stroke="#3a29df" points="652.291,-188.323 660.342,-180.878 654.246,-183.721 656.2,-179.119 656.2,-179.119 656.2,-179.119 654.246,-183.721 652.058,-177.36 652.291,-188.323 652.291,-188.323"/>
<text text-anchor="middle" x="671.491" y="-203.4" font-family="Times Roman,serif" font-size="14.00">details</text>
</g>
<!-- MatchGeneral&#45;&gt;LineUp -->
<g id="edge34" class="edge"><title>MatchGeneral&#45;&gt;LineUp</title>
<path fill="none" stroke="#6024d1" d="M616.966,-289.742C615.982,-256.239 607.799,-222.196 584.491,-198 557.982,-170.482 448.653,-194.953 413.491,-180 409.99,-178.511 406.517,-176.867 403.081,-175.093"/>
<ellipse fill="none" stroke="#6024d1" cx="617.017" cy="-293.784" rx="4" ry="4"/>
<polygon fill="#6024d1" stroke="#6024d1" points="402.829,-174.953 396.26,-166.172 398.455,-172.531 394.08,-170.109 394.08,-170.109 394.08,-170.109 398.455,-172.531 391.9,-174.046 402.829,-174.953 402.829,-174.953"/>
</g>
<!-- Position -->
<g id="node8" class="node"><title>Position</title>
<polygon fill="none" stroke="black" points="1083.99,-1283 1083.99,-1335 1154.99,-1335 1154.99,-1283 1083.99,-1283"/>
<text text-anchor="middle" x="1119.49" y="-1318.4" font-family="Times Roman,serif" font-size="14.00">Position</text>
<polyline fill="none" stroke="black" points="1083.99,-1309 1154.99,-1309 "/>
<text text-anchor="middle" x="1119.49" y="-1292.4" font-family="Times Roman,serif" font-size="14.00"> </text>
</g>
<!-- League -->
<g id="node9" class="node"><title>League</title>
<polyline fill="none" stroke="black" points="635.991,-1247 776.991,-1247 "/>
<path fill="none" stroke="black" d="M776.991,-1247C782.991,-1247 788.991,-1253 788.991,-1259"/>
<polyline fill="none" stroke="black" points="788.991,-1259 788.991,-1359 "/>
<path fill="none" stroke="black" d="M788.991,-1359C788.991,-1365 782.991,-1371 776.991,-1371"/>
<polyline fill="none" stroke="black" points="776.991,-1371 635.991,-1371 "/>
<path fill="none" stroke="black" d="M635.991,-1371C629.991,-1371 623.991,-1365 623.991,-1359"/>
<polyline fill="none" stroke="black" points="623.991,-1359 623.991,-1259 "/>
<path fill="none" stroke="black" d="M623.991,-1259C623.991,-1253 629.991,-1247 635.991,-1247"/>
<text text-anchor="middle" x="706.491" y="-1354.4" font-family="Times Roman,serif" font-size="14.00">League</text>
<polyline fill="none" stroke="black" points="623.991,-1345 788.991,-1345 "/>
<text text-anchor="start" x="631.991" y="-1328.4" font-family="Times Roman,serif" font-size="14.00">id :integer</text>
<text text-anchor="start" x="631.991" y="-1310.4" font-family="Times Roman,serif" font-size="14.00">category :integer</text>
<text text-anchor="start" x="631.991" y="-1292.4" font-family="Times Roman,serif" font-size="14.00">created_at :datetime</text>
<text text-anchor="start" x="631.991" y="-1274.4" font-family="Times Roman,serif" font-size="14.00">updated_at :datetime</text>
<text text-anchor="start" x="631.991" y="-1256.4" font-family="Times Roman,serif" font-size="14.00">state_teams :integer</text>
</g>
<!-- League&#45;&gt;Season -->
<g id="edge36" class="edge"><title>League&#45;&gt;Season</title>
<path fill="none" stroke="#d1eef9" d="M706.491,-1238.5C706.491,-1207.17 706.491,-1169.91 706.491,-1136.55"/>
<ellipse fill="none" stroke="#d1eef9" cx="706.491" cy="-1242.67" rx="4" ry="4"/>
<polygon fill="#d1eef9" stroke="#d1eef9" points="706.491,-1136.33 710.991,-1126.33 706.491,-1131.33 706.491,-1126.33 706.491,-1126.33 706.491,-1126.33 706.491,-1131.33 701.991,-1126.33 706.491,-1136.33 706.491,-1136.33"/>
</g>
<!-- Classification -->
<g id="node10" class="node"><title>Classification</title>
<polygon fill="none" stroke="black" points="1172.49,-1283 1172.49,-1335 1278.49,-1335 1278.49,-1283 1172.49,-1283"/>
<text text-anchor="middle" x="1225.49" y="-1318.4" font-family="Times Roman,serif" font-size="14.00">Classification</text>
<polyline fill="none" stroke="black" points="1172.49,-1309 1278.49,-1309 "/>
<text text-anchor="middle" x="1225.49" y="-1292.4" font-family="Times Roman,serif" font-size="14.00"> </text>
</g>
<!-- Round&#45;&gt;MatchGeneral -->
<g id="edge38" class="edge"><title>Round&#45;&gt;MatchGeneral</title>
<path fill="none" stroke="#36cfda" d="M716.474,-650.552C697.504,-611.071 674.823,-563.867 654.439,-521.443"/>
<ellipse fill="none" stroke="#36cfda" cx="718.231" cy="-654.209" rx="4.00002" ry="4.00002"/>
<polygon fill="#36cfda" stroke="#36cfda" points="654.323,-521.2 654.048,-510.238 652.157,-516.693 649.992,-512.186 649.992,-512.186 649.992,-512.186 652.157,-516.693 645.936,-514.135 654.323,-521.2 654.323,-521.2"/>
</g>
<!-- Round&#45;&gt;ClubFinancesRound -->
<g id="edge40" class="edge"><title>Round&#45;&gt;ClubFinancesRound</title>
<path fill="none" stroke="#33f410" d="M780.781,-649.636C789.245,-616.08 799.091,-577.049 808.399,-540.148"/>
<ellipse fill="none" stroke="#33f410" cx="779.696" cy="-653.936" rx="4.00001" ry="4.00001"/>
<polygon fill="#33f410" stroke="#33f410" points="808.435,-540.009 815.244,-531.413 809.658,-535.161 810.881,-530.312 810.881,-530.312 810.881,-530.312 809.658,-535.161 806.517,-529.212 808.435,-540.009 808.435,-540.009"/>
</g>
<!-- AdminMessages -->
<g id="node14" class="node"><title>AdminMessages</title>
<polyline fill="none" stroke="black" points="1307.99,-1247 1448.99,-1247 "/>
<path fill="none" stroke="black" d="M1448.99,-1247C1454.99,-1247 1460.99,-1253 1460.99,-1259"/>
<polyline fill="none" stroke="black" points="1460.99,-1259 1460.99,-1359 "/>
<path fill="none" stroke="black" d="M1460.99,-1359C1460.99,-1365 1454.99,-1371 1448.99,-1371"/>
<polyline fill="none" stroke="black" points="1448.99,-1371 1307.99,-1371 "/>
<path fill="none" stroke="black" d="M1307.99,-1371C1301.99,-1371 1295.99,-1365 1295.99,-1359"/>
<polyline fill="none" stroke="black" points="1295.99,-1359 1295.99,-1259 "/>
<path fill="none" stroke="black" d="M1295.99,-1259C1295.99,-1253 1301.99,-1247 1307.99,-1247"/>
<text text-anchor="middle" x="1378.49" y="-1354.4" font-family="Times Roman,serif" font-size="14.00">AdminMessages</text>
<polyline fill="none" stroke="black" points="1295.99,-1345 1460.99,-1345 "/>
<text text-anchor="start" x="1303.99" y="-1328.4" font-family="Times Roman,serif" font-size="14.00">id :integer</text>
<text text-anchor="start" x="1303.99" y="-1310.4" font-family="Times Roman,serif" font-size="14.00">text_msg_es :string</text>
<text text-anchor="start" x="1303.99" y="-1292.4" font-family="Times Roman,serif" font-size="14.00">text_msg_en :string</text>
<text text-anchor="start" x="1303.99" y="-1274.4" font-family="Times Roman,serif" font-size="14.00">created_at :datetime</text>
<text text-anchor="start" x="1303.99" y="-1256.4" font-family="Times Roman,serif" font-size="14.00">updated_at :datetime</text>
</g>
<!-- User -->
<g id="node17" class="node"><title>User</title>
<polyline fill="none" stroke="black" points="366.491,-885 542.491,-885 "/>
<path fill="none" stroke="black" d="M542.491,-885C548.491,-885 554.491,-891 554.491,-897"/>
<polyline fill="none" stroke="black" points="554.491,-897 554.491,-1195 "/>
<path fill="none" stroke="black" d="M554.491,-1195C554.491,-1201 548.491,-1207 542.491,-1207"/>
<polyline fill="none" stroke="black" points="542.491,-1207 366.491,-1207 "/>
<path fill="none" stroke="black" d="M366.491,-1207C360.491,-1207 354.491,-1201 354.491,-1195"/>
<polyline fill="none" stroke="black" points="354.491,-1195 354.491,-897 "/>
<path fill="none" stroke="black" d="M354.491,-897C354.491,-891 360.491,-885 366.491,-885"/>
<text text-anchor="middle" x="454.491" y="-1190.4" font-family="Times Roman,serif" font-size="14.00">User</text>
<polyline fill="none" stroke="black" points="354.491,-1181 554.491,-1181 "/>
<text text-anchor="start" x="362.491" y="-1164.4" font-family="Times Roman,serif" font-size="14.00">id :integer</text>
<text text-anchor="start" x="362.491" y="-1146.4" font-family="Times Roman,serif" font-size="14.00">login :string</text>
<text text-anchor="start" x="362.491" y="-1128.4" font-family="Times Roman,serif" font-size="14.00">crypted_password :string</text>
<text text-anchor="start" x="362.491" y="-1110.4" font-family="Times Roman,serif" font-size="14.00">password_salt :string</text>
<text text-anchor="start" x="362.491" y="-1092.4" font-family="Times Roman,serif" font-size="14.00">persistence_token :string</text>
<text text-anchor="start" x="362.491" y="-1074.4" font-family="Times Roman,serif" font-size="14.00">login_count :integer</text>
<text text-anchor="start" x="362.491" y="-1056.4" font-family="Times Roman,serif" font-size="14.00">last_request_at :datetime</text>
<text text-anchor="start" x="362.491" y="-1038.4" font-family="Times Roman,serif" font-size="14.00">last_login_at :datetime</text>
<text text-anchor="start" x="362.491" y="-1020.4" font-family="Times Roman,serif" font-size="14.00">current_login_at :datetime</text>
<text text-anchor="start" x="362.491" y="-1002.4" font-family="Times Roman,serif" font-size="14.00">last_login_ip :string</text>
<text text-anchor="start" x="362.491" y="-984.4" font-family="Times Roman,serif" font-size="14.00">current_login_ip :string</text>
<text text-anchor="start" x="362.491" y="-966.4" font-family="Times Roman,serif" font-size="14.00">created_at :datetime</text>
<text text-anchor="start" x="362.491" y="-948.4" font-family="Times Roman,serif" font-size="14.00">updated_at :datetime</text>
<text text-anchor="start" x="362.491" y="-930.4" font-family="Times Roman,serif" font-size="14.00">admin :boolean</text>
<text text-anchor="start" x="362.491" y="-912.4" font-family="Times Roman,serif" font-size="14.00">email :string</text>
<text text-anchor="start" x="362.491" y="-894.4" font-family="Times Roman,serif" font-size="14.00">prefer_lang :string</text>
</g>
<!-- User&#45;&gt;Club -->
<g id="edge42" class="edge"><title>User&#45;&gt;Club</title>
<path fill="none" stroke="#307ae9" d="M454.491,-876.636C454.491,-868.827 454.491,-861.071 454.491,-853.45"/>
<ellipse fill="none" stroke="#307ae9" cx="454.491" cy="-880.784" rx="4" ry="4"/>
<ellipse fill="#307ae9" stroke="#307ae9" cx="454.491" cy="-849.237" rx="4" ry="4"/>
</g>
<!-- Authlogic::Session::Base -->
<g id="node32" class="node"><title>Authlogic::Session::Base</title>
<ellipse fill="none" stroke="black" cx="936.491" cy="-1309" rx="130.108" ry="18.3848"/>
<text text-anchor="middle" x="936.491" y="-1305.4" font-family="Times Roman,serif" font-size="14.00">Authlogic::Session::Base</text>
</g>
<!-- Authlogic::Session::Base&#45;&gt;UserSession -->
<g id="edge30" class="edge"><title>Authlogic::Session::Base&#45;&gt;UserSession</title>
<path fill="none" stroke="black" d="M936.491,-1290.09C936.491,-1243.92 936.491,-1125.37 936.491,-1072.33"/>
</g>
</g>
</svg>
